<svg width="74" height="74" xmlns="http://www.w3.org/2000/svg" xmlns:xlink="http://www.w3.org/1999/xlink" xml:space="preserve" overflow="hidden"><defs><clipPath id="clip0"><rect x="241" y="397" width="74" height="74"/></clipPath></defs><g clip-path="url(#clip0)" transform="translate(-241 -397)"><path d="M299.583 410.875C299.583 414.281 289.92 417.042 278 417.042 266.08 417.042 256.417 414.281 256.417 410.875 256.417 407.469 266.08 404.708 278 404.708 289.92 404.708 299.583 407.469 299.583 410.875Z" fill="#E5352C"/><path d="M293.417 426.292C292.492 426.292 291.875 425.675 291.875 424.75 291.875 423.825 292.492 423.208 293.417 423.208 294.342 423.208 294.958 423.825 294.958 424.75 294.958 425.675 294.342 426.292 293.417 426.292ZM278 420.125C266.129 420.125 256.417 417.35 256.417 413.958L256.417 426.292C256.417 429.683 266.129 432.458 278 432.458 289.871 432.458 299.583 429.683 299.583 426.292L299.583 413.958C299.583 417.35 289.871 420.125 278 420.125Z" fill="#E5352C"/><path d="M293.417 441.708C292.492 441.708 291.875 441.092 291.875 440.167 291.875 439.242 292.492 438.625 293.417 438.625 294.342 438.625 294.958 439.242 294.958 440.167 294.958 441.092 294.342 441.708 293.417 441.708ZM278 435.542C266.129 435.542 256.417 432.767 256.417 429.375L256.417 441.708C256.417 445.1 266.129 447.875 278 447.875 289.871 447.875 299.583 445.1 299.583 441.708L299.583 429.375C299.583 432.767 289.871 435.542 278 435.542Z" fill="#E5352C"/><path d="M293.417 457.125C292.492 457.125 291.875 456.508 291.875 455.583 291.875 454.658 292.492 454.042 293.417 454.042 294.342 454.042 294.958 454.658 294.958 455.583 294.958 456.508 294.342 457.125 293.417 457.125ZM278 450.958C266.129 450.958 256.417 448.183 256.417 444.792L256.417 457.125C256.417 460.517 266.129 463.292 278 463.292 289.871 463.292 299.583 460.517 299.583 457.125L299.583 444.792C299.583 448.183 289.871 450.958 278 450.958Z" fill="#E5352C"/></g></svg>