<svg width="74" height="74" xmlns="http://www.w3.org/2000/svg" xmlns:xlink="http://www.w3.org/1999/xlink" xml:space="preserve" overflow="hidden"><defs><clipPath id="clip0"><rect x="242" y="278" width="74" height="74"/></clipPath></defs><g clip-path="url(#clip0)" transform="translate(-242 -278)"><path d="M259.729 341.208 259.729 288.792 279 288.792 279 304.979 298.271 304.979 298.271 341.208 259.729 341.208ZM283.625 290.719 293.26 300.354 283.625 300.354 283.625 290.719ZM283.625 284.167 255.104 284.167 255.104 345.833 302.896 345.833 302.896 301.125 283.625 284.167Z" fill="#E5352C"/><path d="M264.354 312.688 293.646 312.688 293.646 315.771 264.354 315.771Z" fill="#E5352C"/><path d="M264.354 306.521 274.375 306.521 274.375 309.604 264.354 309.604Z" fill="#E5352C"/><path d="M264.354 318.854 293.646 318.854 293.646 321.938 264.354 321.938Z" fill="#E5352C"/><path d="M264.354 325.021 293.646 325.021 293.646 328.104 264.354 328.104Z" fill="#E5352C"/><path d="M264.354 331.188 293.646 331.188 293.646 334.271 264.354 334.271Z" fill="#E5352C"/></g></svg>